<svg xmlns="http://www.w3.org/2000/svg" viewBox="0 0 512 512">
  <defs>
    <linearGradient id="bg" x1="64" y1="52" x2="448" y2="460" gradientUnits="userSpaceOnUse">
      <stop offset="0" stop-color="#1D4ED8"/>
      <stop offset="0.55" stop-color="#4F46E5"/>
      <stop offset="1" stop-color="#7C3AED"/>
    </linearGradient>
    <radialGradient id="glow" cx="0" cy="0" r="1" gradientTransform="translate(372 124) rotate(135) scale(180 180)" gradientUnits="userSpaceOnUse">
      <stop offset="0" stop-color="#FDE68A" stop-opacity="0.95"/>
      <stop offset="1" stop-color="#FDE68A" stop-opacity="0"/>
    </radialGradient>
    <filter id="shadow" x="-20%" y="-20%" width="140%" height="140%">
      <feDropShadow dx="0" dy="18" stdDeviation="18" flood-color="#12053A" flood-opacity="0.28"/>
    </filter>
  </defs>
  <rect width="512" height="512" rx="132" fill="url(#bg)"/>
  <rect x="24" y="24" width="464" height="464" rx="108" fill="none" stroke="rgba(255,255,255,0.16)"/>
  <circle cx="366" cy="136" r="126" fill="url(#glow)"/>
  <g filter="url(#shadow)">
    <path d="M118 330c0-25 20-45 45-45h75c22 0 38 6 52 18 14-12 30-18 52-18h75c25 0 45 20 45 45v22c0 11-9 20-20 20H331c-19 0-41 8-60 22-9 7-22 7-31 0-19-14-41-22-60-22H138c-11 0-20-9-20-20v-22Z" fill="#ffffff"/>
    <path d="M256 190c23-23 48-33 86-33h41c13 0 23 10 23 23v119c-17-10-35-14-56-14h-12c-31 0-58 10-82 31V190Z" fill="#F9FBFF"/>
    <path d="M256 190c-23-23-48-33-86-33h-41c-13 0-23 10-23 23v119c17-10 35-14 56-14h12c31 0 58 10 82 31V190Z" fill="#EAF1FF"/>
    <path d="M256 204v142" stroke="#C7D2FE" stroke-width="16" stroke-linecap="round"/>
    <path d="M162 215h46M162 245h66M304 215h46M284 245h86" stroke="#B7C6FF" stroke-width="12" stroke-linecap="round" opacity="0.9"/>
  </g>
  <path d="M361 83l16 32 35 5-25 24 6 34-32-17-31 17 6-34-25-24 35-5 15-32Z" fill="#FBBF24"/>
</svg>
