<svg xmlns="http://www.w3.org/2000/svg" viewBox="0 0 512 512">
  <defs>
    <linearGradient id="bg" x1="64" y1="52" x2="448" y2="460" gradientUnits="userSpaceOnUse">
      <stop offset="0" stop-color="#1D4ED8"/>
      <stop offset="0.55" stop-color="#4F46E5"/>
      <stop offset="1" stop-color="#7C3AED"/>
    </linearGradient>
    <radialGradient id="glow" cx="0" cy="0" r="1" gradientTransform="translate(356 144) rotate(135) scale(180 180)" gradientUnits="userSpaceOnUse">
      <stop offset="0" stop-color="#FDE68A" stop-opacity="0.95"/>
      <stop offset="1" stop-color="#FDE68A" stop-opacity="0"/>
    </radialGradient>
  </defs>
  <rect width="512" height="512" rx="164" fill="url(#bg)"/>
  <circle cx="352" cy="146" r="122" fill="url(#glow)"/>
  <g>
    <path d="M140 332c0-23 18-41 41-41h68c20 0 35 5 48 16 13-11 28-16 48-16h68c23 0 41 18 41 41v20c0 10-8 18-18 18H321c-18 0-38 8-56 21-9 6-20 6-29 0-18-13-38-21-56-21H158c-10 0-18-8-18-18v-20Z" fill="#ffffff"/>
    <path d="M256 214c22-22 45-31 80-31h36c12 0 22 10 22 22v103c-16-9-33-13-52-13h-10c-28 0-54 10-76 28V214Z" fill="#F9FBFF"/>
    <path d="M256 214c-22-22-45-31-80-31h-36c-12 0-22 10-22 22v103c16-9 33-13 52-13h10c28 0 54 10 76 28V214Z" fill="#EAF1FF"/>
    <path d="M256 226v130" stroke="#C7D2FE" stroke-width="15" stroke-linecap="round"/>
  </g>
  <path d="M349 92l15 28 32 5-23 22 5 31-29-16-29 16 5-31-23-22 32-5 15-28Z" fill="#FBBF24"/>
</svg>
